<?xml version="1.0" encoding="utf-8"?>
<!-- Generator: Adobe Illustrator 19.2.1, SVG Export Plug-In . SVG Version: 6.00 Build 0)  -->
<svg version="1.1" id="Layer_1" xmlns="http://www.w3.org/2000/svg" xmlns:xlink="http://www.w3.org/1999/xlink" x="0px" y="0px"
	 viewBox="0 0 85.2 89.9" style="enable-background:new 0 0 85.2 89.9;" xml:space="preserve">
<style type="text/css">
	.st0{fill:#FCFCFC;}
</style>
<g>
	<path class="st0" d="M82,32.8C81.9,32.7,81.9,32.7,82,32.8L82,32.8z"/>
	<polygon class="st0" points="48.6,13 48.6,13 48.6,13 	"/>
	<path class="st0" d="M85.1,41.5C85.1,41.5,85.1,41.5,85.1,41.5L85.1,41.5z"/>
	<polygon class="st0" points="63.7,82 63.7,82 63.7,82 	"/>
	<g>
		<path class="st0" d="M85.2,47.7c-0.1-4-0.7-7.9-2.1-11.7c0.4,1,0.7,2.1,1.1,3c-0.3-0.8-0.6-1.8-1.1-3C82.4,33.9,82,33,82,32.8
			c0.1,0.3,0.6,1.7,1.2,3.3C78.5,23.1,68.2,20.9,62,20.7c2.8-3.8,4.6-8.4,5.3-13c0.2-1.8,0.3-3.6-0.4-5.3C66,0.3,63.8-0.1,61.7,0
			c-3.5,0.2-7,1.6-10,3.3c-4.2,2.3-8.1,5.9-9.7,10.5c-2.6-3.5-6.2-6.3-10-8.3c-1-0.5-2.1-1.2-3.2-1c-2.5,0.5-3,3.9-0.8,5.1
			c4.7,2.6,9.6,5.5,11.4,10.9c0.5,1.4,0.7,2.9,0.6,4.4c-4.8-2.3-9.6-4-15-4.2c-3.1-0.1-6.2,0.2-9.1,1.2C7.5,24.7,2.7,32.1,0.9,40.3
			C-1,49.2,0.3,58.8,3.6,67.2c3.2,8.1,8.7,16.2,16.6,20.3c4,2.1,8.6,2.9,13,2c2.2-0.4,4-1.4,6-2.3c1.7-0.7,3.7-1.1,5.5-0.6l1,0.4
			c3.2,1.6,6.9,2.6,10.5,2.6c9.8,0,17.6-7.6,22.3-15.6C83,66.2,85.4,56.9,85.2,47.7z M48.6,13C48.6,13,48.5,13,48.6,13
			C48.5,13,48.5,13,48.6,13C48.6,13,48.6,13,48.6,13C52.2,8,59.4,5.7,62,5.5c0.1,1.3-0.3,2.6-0.6,3.9c-0.5,2.1-1.3,4.2-2.4,6.1
			c-2.4,4.3-6.4,7.4-11.5,6.9c-0.3-0.1-0.4-0.2-0.5-0.5C46.1,18.6,46.6,15.6,48.6,13z M76.3,65.8c-2.6,6.4-6.7,12.5-12.6,16.2
			c1-0.6,4.7-3,5-3.2c-0.2,0.1-1.6,1-5.1,3.2c-0.4,0.2-0.3,0.2,0,0c-2.4,1.5-5,2.3-7.7,2.3c-1.5,0-3-0.2-4.5-0.6
			c-1.4-0.4-2.6-1-3.9-1.6l-1.1-0.4c-2-0.8-4.4-0.8-6.5-0.3c-2.8,0.6-5.1,2.4-8,2.9c-5.3,1-10.2-1.4-14-4.9
			C11.4,73.4,7.6,64.6,6.1,56c-1.4-8.4-0.8-19.2,5.8-25.4c6.5-6.2,16.6-4.8,24.1-1.3c2.2,1,5.1,3,7.6,2.3c2.5-0.6,4.7-2,7.1-3
			c4.4-1.9,9.3-2.8,14.1-2.1c3.7,0.6,7.2,2.3,9.7,5.1c3,3.4,4.4,8.1,5,12.5C80.4,51.4,79.1,59,76.3,65.8z"/>
		<path class="st0" d="M84.2,39.1c0.5,1.5,0.8,2.3,0.9,2.4C85,41.3,84.6,40.3,84.2,39.1z"/>
		<path class="st0" d="M68.9,38.4c-0.4-0.5-0.7-1-1.2-1.3c-2.6-2.4-6.3,1.7-3.7,4c1.4,1.4,2.1,3.5,2.4,5.4c0.3,2.3,0.1,4.6-0.5,6.8
			c-0.3,1.2-1.1,2.5-0.9,3.8c0.2,1.2,1.2,2.2,2.4,2.3c3,0.3,3.6-3.7,4-5.8c0.5-2.3,0.7-4.6,0.4-6.9C71.7,43.6,70.7,40.7,68.9,38.4z"
			/>
	</g>
	<path class="st0" d="M67.8,37C68.1,37.3,66.6,36,67.8,37L67.8,37z"/>
</g>
</svg>
